<svg xmlns="http://www.w3.org/2000/svg" viewBox="0 0 120 130" fill="none">
  <defs>
    <linearGradient id="g1" x1="15" y1="5" x2="105" y2="125" gradientUnits="userSpaceOnUse">
      <stop offset="0%"   stop-color="#22D3EE"/>
      <stop offset="35%"  stop-color="#818CF8"/>
      <stop offset="70%"  stop-color="#A855F7"/>
      <stop offset="100%" stop-color="#EC4899"/>
    </linearGradient>
    <linearGradient id="g2" x1="10" y1="10" x2="55" y2="90" gradientUnits="userSpaceOnUse">
      <stop offset="0%"   stop-color="#06B6D4"/>
      <stop offset="100%" stop-color="#6366F1"/>
    </linearGradient>
    <linearGradient id="g3" x1="110" y1="10" x2="65" y2="90" gradientUnits="userSpaceOnUse">
      <stop offset="0%"   stop-color="#A78BFA"/>
      <stop offset="100%" stop-color="#D946EF"/>
    </linearGradient>
    <linearGradient id="g4" x1="60" y1="30" x2="60" y2="110" gradientUnits="userSpaceOnUse">
      <stop offset="0%"   stop-color="#E0F2FE" stop-opacity="0.9"/>
      <stop offset="100%" stop-color="#C4B5FD" stop-opacity="0.6"/>
    </linearGradient>
    <linearGradient id="g5" x1="60" y1="38" x2="60" y2="88" gradientUnits="userSpaceOnUse">
      <stop offset="0%"   stop-color="#FFFFFF" stop-opacity="0.95"/>
      <stop offset="100%" stop-color="#E0E7FF" stop-opacity="0.7"/>
    </linearGradient>
    <linearGradient id="gshine" x1="20" y1="5" x2="100" y2="55" gradientUnits="userSpaceOnUse">
      <stop offset="0%"   stop-color="#FFFFFF" stop-opacity="0.45"/>
      <stop offset="100%" stop-color="#FFFFFF" stop-opacity="0"/>
    </linearGradient>
  </defs>
  <!-- Escudo base -->
  <path d="M60 4 L108 22 L108 62 C108 88 86 108 60 126 C34 108 12 88 12 62 L12 22 Z" fill="url(#g1)" opacity="0.92"/>
  <!-- Facetas superiores -->
  <path d="M60 4 L108 22 L84 22 L60 12 Z" fill="url(#g2)" opacity="0.7"/>
  <path d="M12 22 L60 12 L60 4 L12 22 Z" fill="#22D3EE" opacity="0.55"/>
  <path d="M108 22 L60 12 L60 4 L108 22 Z" fill="#A855F7" opacity="0.5"/>
  <!-- Banda superior -->
  <path d="M12 22 L108 22 L92 40 L28 40 Z" fill="white" opacity="0.12"/>
  <!-- Faceta central -->
  <path d="M60 12 L80 40 L60 126 L40 40 Z" fill="url(#g4)" opacity="0.45"/>
  <!-- Facetas diagonales -->
  <path d="M28 40 L60 12 L40 40 L26 72 Z" fill="url(#g2)" opacity="0.35"/>
  <path d="M92 40 L60 12 L80 40 L94 72 Z" fill="url(#g3)" opacity="0.35"/>
  <!-- Aristas -->
  <line x1="60" y1="12" x2="60"  y2="126" stroke="white" stroke-width="0.8" opacity="0.4"/>
  <line x1="28" y1="40" x2="92"  y2="40"  stroke="white" stroke-width="0.7" opacity="0.3"/>
  <line x1="60" y1="12" x2="28"  y2="40"  stroke="white" stroke-width="0.6" opacity="0.35"/>
  <line x1="60" y1="12" x2="92"  y2="40"  stroke="white" stroke-width="0.6" opacity="0.35"/>
  <!-- Brillo -->
  <path d="M60 4 L12 22 L28 40 L60 28 Z" fill="url(#gshine)" opacity="0.6"/>
  <!-- Plumilla -->
  <path d="M60 88 L47 56 L52 44 L60 76 Z" fill="url(#g5)" opacity="0.9"/>
  <path d="M60 88 L73 56 L68 44 L60 76 Z" fill="url(#g5)" opacity="0.75"/>
  <line x1="60" y1="45" x2="60" y2="88" stroke="white" stroke-width="1.2" opacity="0.6"/>
  <path d="M52 44 C52 38, 68 38, 68 44 L60 54 Z" fill="white" opacity="0.85"/>
  <ellipse cx="60" cy="52" rx="2.5" ry="3.5" fill="none" stroke="white" stroke-width="1" opacity="0.7"/>
  <circle cx="60" cy="88" r="2" fill="white" opacity="0.9"/>
  <!-- Borde exterior -->
  <path d="M60 4 L108 22 L108 62 C108 88 86 108 60 126 C34 108 12 88 12 62 L12 22 Z" fill="none" stroke="white" stroke-width="1.5" opacity="0.35"/>
</svg>
